<?xml version="1.0" encoding="UTF-8"?>
<svg id="_レイヤー_1" data-name="レイヤー_1" xmlns="http://www.w3.org/2000/svg" version="1.1" viewBox="0 0 105 14.382">
  <!-- Generator: Adobe Illustrator 29.8.2, SVG Export Plug-In . SVG Version: 2.1.1 Build 3)  -->
  <defs>
    <style>
      .st0 {
        fill: #aa182c;
      }
    </style>
  </defs>
  <path class="st0" d="M10.829.003H0c.409.963.389.821.389,2.482v9.436c-.062,1.104.041,1.599-.389,2.458h10.829c2.685,0,3.445-1.025,3.445-2.974v-2.379c-.041-1.578-.76-1.784-2.87-2.132,2.028-.041,2.87-.615,2.87-2.276v-1.64C14.232,1.03,13.39.006,10.829.006v-.003ZM9.639,11.199c-.079.739-.206.801-.818.801h-3.368v-3.854h3.368c.818.041.818.265.818.798v2.255ZM9.639,4.946c0,.533-.162.818-.818.818h-3.368v-3.383h3.368c.818,0,.818.247.818.821v1.743Z"/>
  <path class="st0" d="M27.925,8.143c1.434-.082,2.028-.533,2.028-2.317v-2.647C29.913.76,28.847.003,26.509.003h-10.87c.595.801.512,1.496.512,2.479v9.436c-.062,1.107.041,1.599-.389,2.461h5.865c-.574-1.292-.412-1.578-.412-2.461v-3.774h1.537l2.42,6.233h5.641c-.286-.371-.695-1.334-1.086-2.193l-1.805-4.039h.003ZM25.299,4.946c-.041.736-.141.818-.798.818h-3.286v-3.383h3.286c.821.041.798.244.798.821v1.743Z"/>
  <path class="st0" d="M62.669,2.382c.942.041,1.702.227,2.276.389L64.556.003h-11.462c.409.963.386.821.386,2.482v9.433c-.059,1.107.044,1.599-.386,2.461h5.862c-.571-1.292-.406-1.578-.406-2.461v-3.774h3.589c.512.021,2.297.368,2.297.368v-3.135c-1.413.553-1.784.389-2.297.389h-3.589v-3.383h4.122-.003Z"/>
  <path class="st0" d="M86.263,2.299v9.433L80.849.003h-7.078c.415.636.474.78.474,2.297v9.492c-.041,1.808-.082,1.99-.474,2.585h3.183c-.33-.512-.515-1.722-.515-2.585l.044-9.309,5.473,11.894h6.562s0-11.791,0-11.791c0-2.111.265-2.276.468-2.585h-3.177c.453.657.453.963.453,2.296v.003Z"/>
  <path class="st0" d="M104.364,11.547v-3.548c.041-1.148.085-1.334.636-2.235h-8.409v2.647s.615-.268.821-.268h1.887v2.932c-.021.639-.33.924-.986.924h-1.681c-.674-.021-1.004-.309-1.004-.924V3.306c0-.615.33-.924,1.004-.924h5.388c.942.041,1.701.227,2.275.389L103.908.003h-9.981c-2.258.038-3.345,1.269-3.345,4.222v5.927c.041,3.097,1.19,4.225,3.345,4.225h4.469c1.398-.038,1.56-.371,1.887-1.334l.165,1.334h4.47c-.598-.901-.554-1.025-.554-2.832v.003Z"/>
  <path class="st0" d="M71.607,2.485c0-.615.077-1.743.427-2.482h-5.906c.471,1.107.409.718.409,2.482v9.433c-.062.533,0,1.64-.409,2.461h5.906c-.577-1.292-.427-1.578-.427-2.461V2.485Z"/>
  <path class="st0" d="M32.265.003c.471,1.107.409.718.409,2.482v9.433c-.062.533,0,1.64-.409,2.461h5.906c-.48-.907-.43-2.388-.43-2.388V2.388c-.05-1.407.082-1.646.43-2.385h-5.906Z"/>
  <path class="st0" d="M49.835,12h-4.39v-3.854h3.589c.512.021,2.297.368,2.297.368v-3.135c-1.416.554-1.784.389-2.297.389h-3.589v-3.383h4.122c.554,0,2.297.389,2.297.389L51.455.006h-11.465c.409.963.392.821.392,2.479v9.436c-.062,1.107.038,1.599-.392,2.461h11.671s.451-2.767.451-2.767c-1.434.574-1.396.389-2.276.389v-.003Z"/>
</svg>